<svg xmlns="http://www.w3.org/2000/svg" viewBox="0 0 876.58 507.22"><defs><style>.cls-1{fill:#222;}</style></defs><g id="Layer_2" data-name="Layer 2"><g id="Layer_1-2" data-name="Layer 1"><path class="cls-1" d="M18.29,68.6c34.25,13.19,68.59,26.28,103.42,37.88,19,6.33,38.7,13.26,58.71,15.54,6.55.75,19.23,1.28,18.75-8.48-.23-4.56-3.21-8.94-5.78-12.51a154.92,154.92,0,0,0-15.2-17.48c-21.69-22.2-45.7-42.21-69.43-62.16l-3,3.93c25.84,16.49,51.72,32.94,78.08,48.59,13.35,7.92,27,16.56,41.52,22.14,2.54,1,6.06,2.44,8.8,1.43,3.16-1.17,2.91-4.47,1.74-7-1.73-3.77-4.68-7.09-7.34-10.22-5-5.83-10.32-11.34-15.7-16.79C191.5,41.87,169.1,21.34,146.77.83l-3,3.92c24.74,18.57,49.44,37.19,74.37,55.51,14.19,10.41,28.35,21.1,43.35,30.33,3,1.83,14.79,10.27,17.13,3.52.83-2.42-.84-5.33-1.94-7.37a111.24,111.24,0,0,0-8.25-12.29c-13.19-17.89-27.58-34.93-41.74-52l-3.53,3.54c18.89,18.16,38,36.21,58,53.09,11.27,9.49,23.05,19.57,36.34,26.14,5.63,2.78,14.25,6.22,19.35.6,5.33-5.86,3.17-16.61,1.91-23.51-3.39-18.66-10.12-36.81-16.6-54.57l-4.57,1.92C330.24,47.16,343.06,64.69,357,81.23c8.59,10.15,17.75,20.66,28.94,28.05,6.19,4.08,13.95,7.31,21.34,4.66,7.85-2.81,12.63-10.8,15.94-18,7.05-15.26,10.61-32.15,14-48.52l-4.57.6c11.62,26.05,28.06,57.49,58.36,64.62,13.26,3.13,27.14,1.29,40.14-2.19,18.68-5,36.47-13.26,53.73-21.83,28.25-14,55.65-29.73,83.09-45.26l-3-3.92C649.78,56,634.57,72.6,620.63,90.21c-6.45,8.15-15.19,17.8-17.68,28.23-5.28,22,40.38,0,45.91-2.48,26.25-11.8,51.71-25.4,77.08-39l-3-3.93c-17.59,14.61-35.35,29.37-51.15,45.94a104.38,104.38,0,0,0-12.68,15.39c-2.11,3.29-4.24,7.21-4.09,11.24.34,9.42,12.88,9.69,19.67,9.44,19-.7,38-5.82,56.3-10.48,38.23-9.76,75.95-21.51,113.57-33.33l-1.33-4.83c-28.94,10.67-57.89,21.32-86.69,32.35-13.58,5.2-27.72,10-40.69,16.63-2.06,1.06-6.16,3.14-4,6,1.67,2.2,5.81.95,8,.55,15.62-2.81,31-7.45,46.32-11.6,36.31-9.84,72.49-20.14,108.68-30.41l-1.33-4.82c-33.66,11.46-67.31,23-100.52,35.72-17.24,6.6-35.48,12.95-51.33,22.6-4.9,3-14.1,10.79-4.4,14.53,4.36,1.68,9.49,1.72,14.09,1.83,8.56.21,17.15-.26,25.69-.83,34.24-2.28,68.37-6.65,102.4-11l-.67-4.91c-31.23,7.56-62.49,15.2-93.34,24.23-15,4.39-31.72,8.41-45.14,16.67-2.73,1.68-6.29,4.12-6.46,7.67-.16,3.32,2.81,5.38,5.49,6.61,4.92,2.26,10.5,3.16,15.8,4,9.07,1.43,18.23,2.25,27.37,2.93,34.82,2.58,69.81,3.13,104.71,3.71l-.66-4.91c-32.18,5.56-64.47,11.34-96,19.86-17.33,4.67-36.83,9.8-51.32,21-8.63,6.65-13.13,16.11-8.18,26.51,6.79,14.29,23,24.2,35.89,32.27,30.32,19,63.23,34.08,95.77,48.88l1.92-4.57c-30.12-8.57-60.25-17.13-90.56-25-14.78-3.84-29.95-8.43-45.19-10-2.36-.24-6.29-.8-7.74,1.69-1.65,2.84,1.64,5.24,3.62,6.63,11.73,8.23,26,13.65,39,19.5,31.79,14.35,64,27.85,96.12,41.37l1.33-4.82c-31.46-9.78-63-19.55-94.77-28.12-17.24-4.64-35.23-10-53.16-11-6.22-.34-17.36.56-14.49,9.68,1.37,4.36,5,8.12,8,11.34a196.58,196.58,0,0,0,18,16.23c25.29,20.75,52.24,39.52,79,58.28l2.52-4.32c-25.85-15-51.7-30-77.73-44.65C696,407.58,683.32,400,670.08,394c-2-.9-5.59-3.07-7.59-1.1-2.33,2.29.78,4.93,2.42,6.34,10.27,8.86,21.94,16.33,33.06,24.05,27.61,19.16,55.51,37.92,83.39,56.68l2.52-4.31c-26.57-14.84-53.21-29.6-80.4-43.27-14.72-7.4-30-15.51-46-19.88-5.23-1.43-16.06-3.42-15.65,5.23.19,4,2.7,7.86,4.78,11.09A160.81,160.81,0,0,0,659.12,445c18.25,21.57,38.47,41.52,58.5,61.4l3-3.93c-29.77-19.92-59.85-39.54-91.15-57-20.93-11.65-42.69-22.81-65.76-29.58-14.89-4.37-31.06-6.93-46.37-3.19-13.6,3.33-25,11.84-33.6,22.67-13.07,16.39-21,36.47-27.89,56.08h4.82c-7.41-18.47-15.36-37.08-26.27-53.8-7.32-11.22-16.43-22.31-28.68-28.33-27.18-13.36-57.37,4.87-79.27,20.42-24.29,17.24-46.43,37.49-68.08,57.87l3.93,3c9.94-16.94,20-34,28-52,3.21-7.26,9-18.36,6.05-26.59-2.74-7.67-12.46-5.3-18.23-3.24-14.81,5.28-28.49,14.27-41.66,22.67-28,17.82-55,37.13-81.92,56.42l3,3.93c17.68-17.72,35.41-35.61,51.24-55a154.88,154.88,0,0,0,13.45-18.56c2.43-4.09,4.88-8.69,5.35-13.51.87-9.08-7.54-11.82-15.1-11.84-16.23,0-32.9,5.67-48.19,10.46-33.43,10.48-66.15,23.26-98.74,36.06L67.5,444c25.69-17.59,51.34-35.44,75.39-55.24,13.56-11.17,28.65-23.46,37.42-39,4.9-8.68,6.4-19-1.34-26.47-10.21-9.91-27.31-12.38-40.69-14.37-31.6-4.7-63.89-4.94-95.76-5.05l.66,4.91c29.35-7.08,58.79-14.32,87.45-23.89,14.44-4.82,31.55-9.92,43.08-20.4,23-20.89-28.05-37-40.47-41.22-32.69-11-66.47-18.95-100-26.79l-.66,4.91c29.56,1,59.29,1.82,88.84.14a211.62,211.62,0,0,0,26.47-2.85c5.38-1,11.26-2.25,15.92-5.28,24.17-15.7-41.85-45.5-49.49-49.29C78,126.12,40.44,110.51,3,95c-3-1.22-4.27,3.61-1.33,4.82,33.13,13.69,66.23,27.59,98.6,43,18.21,8.67,37.28,17.48,53.43,29.74,3.59,2.73,7.95,6,9.84,10.3,1,2.26.74,3.82-1.54,5.68-3.22,2.63-8.63,3.87-12.87,4.78A170.08,170.08,0,0,1,125,196.31c-30.73,2.06-61.7,1.08-92.45.09-2.8-.09-3.43,4.26-.67,4.91,29.52,6.9,59.08,14,88.06,22.93,15.79,4.87,33,9.84,46.81,19.29,6.42,4.4,10.69,10,4.63,16.29-3.81,3.95-8.9,6.66-13.75,9.08a202.62,202.62,0,0,1-24.54,9.9C103.27,289.08,72.47,296.58,41.85,304c-2.76.66-2.13,4.9.67,4.91,28.15.1,56.47.47,84.48,3.59,14.76,1.65,32.3,3.38,45.09,11.73,7.94,5.18,9,12.93,4.92,21.14-7.15,14.31-20.81,25.66-32.77,35.81-25,21.25-52.19,40-79.26,58.55-2.17,1.48-.88,5.67,1.93,4.56,28.6-11.24,57.31-22.34,86.47-32.08,16.92-5.65,34.48-11.73,52.29-13.82,4.26-.5,9.1-1,13.27.35,2.45.8,3.62,2.18,3.74,4.21.22,3.54-1.77,7.5-3.56,10.76a121,121,0,0,1-11.56,16.78c-16.31,20.57-35,39.31-53.52,57.88-1.94,1.94.65,5.62,3,3.92C180.47,475.51,204,458.82,228,443c14.46-9.53,29.16-19.25,44.9-26.57,4.1-1.91,8.53-3.88,13.05-4.51a13.4,13.4,0,0,1,3.41,0,2.58,2.58,0,0,1,1.85,1,5.06,5.06,0,0,1,.76,2.33,16.45,16.45,0,0,1-.32,4.59,69.58,69.58,0,0,1-4.75,14.3c-8,18.77-18.57,36.52-28.87,54.08-1.46,2.48,1.87,5,3.93,3,19-17.86,38.29-35.53,59.09-51.25,13.68-10.34,28.36-20.52,44.61-26.35,11-3.93,22.82-5.55,34-1.46,11.64,4.26,20.59,13.94,27.59,23.83,12.26,17.33,20.79,37.25,28.66,56.86a2.52,2.52,0,0,0,4.82,0c9.66-27.66,23.43-64.32,54.29-74.21,14.2-4.56,29.51-2.68,43.67,1.09,21.77,5.8,42.3,16,62,26.67,33.6,18.23,65.7,39.19,97.45,60.44,2.39,1.6,5-2,3-3.93-17.6-17.46-35.17-35-51.67-53.54-5.07-5.7-10.1-11.48-14.66-17.61-2.68-3.59-5.64-7.52-7.26-11.68a8.67,8.67,0,0,1-.69-3.35c0,.1-.09-.21.51-.42-.75.27,1.29-.23.68-.17a12.87,12.87,0,0,1,2.06,0,27.4,27.4,0,0,1,5.24,1c14.62,3.76,28.56,11.13,42,17.8,28.46,14.14,56.26,29.58,84,45.06,2.83,1.59,5.17-2.53,2.52-4.31-24.23-16.32-48.46-32.65-72.53-49.2-13.05-9-26.23-17.85-38.81-27.48-1.38-1.06-2.77-2.13-4.09-3.27-.45-.39-.89-.77-1.32-1.18a3.31,3.31,0,0,0-.49-.5c-.58-.3,0,0,0,0-.66.16,1-1.3,0,.23.16-.24-2.09,4-2.15,2.84,0,.24-.5-.4.32.11a22.08,22.08,0,0,0,3,1.24c12.1,5.57,23.67,12.44,35.27,19,27,15.2,53.87,30.77,80.71,46.33,2.82,1.64,5.12-2.5,2.52-4.32-23.68-16.6-47.39-33.26-70.12-51.17-7-5.52-13.94-11.16-20.48-17.24-3.87-3.6-8-7.4-10.82-11.91a9.14,9.14,0,0,1-1.65-3.77,1.05,1.05,0,0,1,.43-1,5,5,0,0,0,.74-.42,11.84,11.84,0,0,1,2.16-.56,31.42,31.42,0,0,1,5.82-.19c16.29.67,32.74,5.59,48.39,9.73,33.28,8.8,66.19,19,99.05,29.26,3.17,1,4.2-3.62,1.33-4.82-28.34-11.92-56.68-23.87-84.79-36.33-14.85-6.59-30-13-44.16-21-1.69-1-3.39-1.93-5-3.05a11.93,11.93,0,0,1-1.17-.9c-.64-.52-.56-.56-.56-.56.36-.16-.14,1.51-.4,2.06s-.43.27-.43.27c1.24.15,2.57,0,3.83.1,13.76,1.34,27.54,5.58,40.87,9,31.43,8.09,62.66,17,93.87,25.86,2.65.75,4.57-3.37,1.93-4.57-28.85-13.12-57.73-26.57-85.17-42.49-14.63-8.5-31.9-18.08-41.93-32.2C699.54,277.35,751,264.59,767,260.06c33-9.34,67.07-15.36,100.88-21.2,2.85-.49,2.07-4.86-.66-4.91-30.57-.51-61.17-1.11-91.7-2.86-16.29-.94-33.48-1.39-49.33-5.68a26.73,26.73,0,0,1-5.14-1.79,8.34,8.34,0,0,1-2.26-1.72c.08.06.19-.05,0,.24.36-.55-.21-.2.46-1a20.57,20.57,0,0,1,3-2.44c11.95-7.74,27.26-11.39,40.73-15.41,32.07-9.58,64.65-17.49,97.17-25.37,2.67-.64,2.18-5.27-.66-4.91-29.91,3.8-59.86,7.51-89.9,10-15.1,1.27-31.43,3.45-46.55,1.2a27.15,27.15,0,0,1-4.29-1,5.46,5.46,0,0,1-.89-.52c-.22-.07-.07.24,0,.29s-.08,0,.11-.21a5.24,5.24,0,0,1,1-1.2,25.94,25.94,0,0,1,4.36-3.26c14.14-8.94,30.62-14.74,46.13-20.75C804.23,144.12,839.55,132,874.85,120c3-1,1.79-5.71-1.33-4.82-31.74,9-63.47,18-95.28,26.75-17.5,4.81-35,9.75-52.71,13.79-3.45.79-7.53,1.28-10.33,1.93-1,.22-.44-.26-.42,0,0,.13,1.45,1.31,1.5,2.14a2.18,2.18,0,0,1-.46,1.35s-.17,0,.52-.35,1.17-.66,1.77-1c11.58-6,24.26-10.3,36.41-15,29.89-11.5,60-22.55,90-33.62,3-1.1,1.78-5.8-1.33-4.83-33.12,10.42-66.32,20.68-99.85,29.73-20,5.4-40.41,11-61.05,13.31-5.2.58-10.74,1.12-15.93.29a12.85,12.85,0,0,1-4.52-1.4,3.87,3.87,0,0,1-1.65-1.74,4.7,4.7,0,0,1,0-3.16,19,19,0,0,1,2.1-4.81c2.89-5,6.79-9.45,10.69-13.7,16.25-17.64,35-33.06,53.43-48.36,2.26-1.87-.62-5.21-3-3.92-22,11.75-44,23.41-66.56,34.09-12.63,6-25.69,12.43-39.35,15.73-2.85.68-6.4,1.39-8.85.66-1.06-.31-1.32-.92-1-2.7.56-3.54,2.68-6.92,4.51-9.92a161.73,161.73,0,0,1,10.8-15.22C637.16,77.1,652.87,60,668.52,43a2.51,2.51,0,0,0-3-3.92c-24,13.57-48,27.2-72.43,39.84C575.33,88.09,557.22,97,538.2,103.19c-13,4.23-27,7.45-40.75,5.61-12-1.6-22.54-7.49-31.06-16C453.18,79.7,444.51,62.36,437,45.54c-.87-1.95-4.15-1.42-4.57.59-2.95,14.26-6.11,28.69-11.37,42.3-2.75,7.12-6.58,16.26-13.73,20.06-5.94,3.16-12.5.44-17.76-2.84-10.22-6.39-18.59-15.9-26.41-24.93-14.75-17.06-28.08-35.35-41.27-53.63-1.53-2.11-5.62-.95-4.57,1.93,5.65,15.5,11.23,31.17,15.05,47.25,1.68,7.07,4.82,17.85,1.63,24.77a4.22,4.22,0,0,1-4,2.73c-3.24.2-6.63-1.32-9.48-2.69-12.17-5.87-23-14.91-33.3-23.49-21-17.45-40.84-36.28-60.52-55.19-2.36-2.27-5.55,1.1-3.53,3.54C235.59,41,248.14,56,260,71.58c5.17,6.75,10.32,14.14,13.79,21.21.05.1-.13-.06,0-.16-.05,0,1.06-1.2.93-1,.07-.13-.06-.07.09,0-.46-.21-1.06-.25-1.55-.42-3.14-1.11-6.67-3.34-9.74-5.24-13.74-8.51-26.78-18.24-39.81-27.79-26-19-51.71-38.44-77.48-57.77-2.27-1.71-5.1,2-3,3.92,19.53,17.94,39,35.94,57.94,54.53,9.71,9.54,20.39,19.19,28.2,30.44a37.87,37.87,0,0,1,2.09,3.44c.19.42.43,1.06.33,1s0-.34.36-.78.33-.09-.49-.25a29.42,29.42,0,0,1-4.48-1.31c-13.28-4.92-25.74-12.93-37.87-20.08C161.91,55.2,135.06,38.11,108.25,21c-2.35-1.5-5.22,2.08-3,3.93,21.13,17.75,42.26,35.63,62.08,54.85a249.68,249.68,0,0,1,17.87,18.79c3.13,3.74,6.74,8.18,8.36,12.6a8.84,8.84,0,0,1,.66,3.37,1.84,1.84,0,0,1-1.15,1.69c-2.77,1.45-7.26,1.31-11.09,1-18.07-1.66-36.07-8.05-53.2-13.64-36.81-12-73-25.85-109.13-39.77-3-1.15-4.31,3.68-1.33,4.83Z"/></g></g></svg>