<svg xmlns="http://www.w3.org/2000/svg" viewBox="0 0 500 289"><defs><style>.cls-1{fill:#222;}</style></defs><g id="Layer_2" data-name="Layer 2"><g id="Layer_1-2" data-name="Layer 1"><path class="cls-1" d="M10.43,39.08c19.54,7.52,39.12,15,59,21.59,10.84,3.61,22.08,7.56,33.49,8.86,3.74.42,11,.72,10.7-4.84-.13-2.6-1.83-5.09-3.3-7.13a88.16,88.16,0,0,0-8.67-10C89.27,35,75.57,23.55,62,12.19l-1.73,2.24C75,23.82,89.81,33.19,104.84,42.11c7.62,4.51,15.38,9.44,23.69,12.62,1.45.55,3.46,1.38,5,.81,1.8-.67,1.66-2.55,1-4a27,27,0,0,0-4.19-5.83c-2.83-3.32-5.88-6.46-8.95-9.56C109.23,23.86,96.46,12.16,83.72.47L82,2.71c14.11,10.58,28.2,21.19,42.42,31.62,8.09,5.94,16.17,12,24.73,17.28,1.7,1,8.43,5.86,9.77,2,.47-1.38-.48-3-1.11-4.2a60.75,60.75,0,0,0-4.71-7c-7.52-10.19-15.72-19.9-23.8-29.66l-2,2C138.05,25.12,148.92,35.41,160.36,45c6.43,5.4,13.15,11.15,20.73,14.89,3.21,1.58,8.13,3.55,11,.35,3-3.35,1.8-9.47,1.09-13.4-1.93-10.63-5.78-21-9.47-31.1l-2.61,1.1c7.23,10,14.54,20,22.51,29.41,4.9,5.79,10.13,11.77,16.51,16,3.53,2.33,8,4.17,12.18,2.66,4.47-1.6,7.2-6.15,9.09-10.23,4-8.7,6-18.32,8-27.65l-2.61.34c6.64,14.84,16,32.76,33.3,36.82C287.66,66,295.58,64.94,303,63c10.65-2.85,20.8-7.56,30.65-12.45,16.11-8,31.74-16.93,47.39-25.78l-1.73-2.24C370.63,31.9,362,41.37,354,51.4c-3.68,4.64-8.67,10.14-10.09,16.08-3,12.56,23,0,26.19-1.41,15-6.73,29.49-14.47,44-22.2l-1.73-2.24c-10,8.33-20.17,16.74-29.18,26.18a58.93,58.93,0,0,0-7.23,8.77c-1.2,1.87-2.42,4.11-2.34,6.4.2,5.37,7.35,5.52,11.22,5.38,10.83-.4,21.69-3.31,32.12-6,21.8-5.56,43.32-12.26,64.78-19L481,60.65c-16.51,6.07-33,12.14-49.45,18.43-7.74,3-15.81,5.69-23.21,9.47-1.17.61-3.51,1.8-2.26,3.45.95,1.25,3.31.54,4.56.31,8.91-1.6,17.69-4.25,26.42-6.61,20.71-5.61,41.35-11.47,62-17.33l-.76-2.74c-19.2,6.52-38.39,13.11-57.33,20.35-9.84,3.76-20.24,7.38-29.28,12.87-2.8,1.71-8.05,6.16-2.51,8.29,2.48,1,5.41,1,8,1,4.89.12,9.79-.15,14.66-.47,19.53-1.3,39-3.8,58.41-6.26l-.38-2.8C472,103,454.2,107.31,436.61,112.46c-8.54,2.49-18.1,4.79-25.76,9.49-1.55,1-3.58,2.35-3.68,4.38s1.6,3.06,3.13,3.76a34.54,34.54,0,0,0,9,2.28c5.17.81,10.39,1.27,15.61,1.66,19.86,1.47,39.82,1.79,59.72,2.12l-.37-2.8c-18.36,3.17-36.78,6.46-54.77,11.31-9.89,2.67-21,5.59-29.27,11.94-4.92,3.79-7.49,9.18-4.67,15.11,3.87,8.14,13.14,13.79,20.47,18.38,17.3,10.85,36.07,19.42,54.63,27.85l1.1-2.6c-17.18-4.89-34.37-9.76-51.66-14.25-8.43-2.18-17.08-4.8-25.78-5.7-1.35-.14-3.59-.46-4.41,1-.94,1.62.93,3,2.06,3.78,6.69,4.69,14.85,7.77,22.25,11.11,18.13,8.17,36.49,15.87,54.83,23.57l.75-2.75c-17.94-5.57-35.91-11.14-54.06-16-9.83-2.65-20.09-5.7-30.32-6.27-3.55-.2-9.9.32-8.26,5.52.78,2.48,2.83,4.62,4.58,6.46A111.12,111.12,0,0,0,402,231c14.42,11.83,29.8,22.52,45.07,33.21l1.44-2.46c-14.75-8.54-29.49-17.08-44.34-25.45-7.22-4.06-14.43-8.39-22-11.83-1.12-.51-3.19-1.75-4.33-.62-1.33,1.3.45,2.8,1.38,3.61,5.86,5,12.52,9.3,18.86,13.7,15.75,10.92,31.66,21.6,47.56,32.3l1.44-2.46c-15.15-8.46-30.35-16.86-45.86-24.65-8.39-4.22-17.09-8.84-26.21-11.33-3-.82-9.16-1.95-8.92,3,.1,2.26,1.54,4.48,2.73,6.32a92,92,0,0,0,7.1,9.26c10.41,12.28,21.94,23.65,33.37,35l1.73-2.24c-17-11.35-34.14-22.53-52-32.46-11.93-6.64-24.35-13-37.5-16.86-8.5-2.49-17.72-4-26.46-1.82-7.75,1.9-14.23,6.75-19.16,12.92-7.45,9.34-12,20.78-15.91,32h2.75c-4.23-10.53-8.76-21.13-15-30.66-4.17-6.39-9.36-12.71-16.35-16.14-15.5-7.62-32.73,2.77-45.22,11.63-13.85,9.82-26.48,21.36-38.83,33l2.24,1.73c5.67-9.65,11.41-19.39,16-29.63,1.83-4.14,5.12-10.46,3.45-15.15-1.56-4.37-7.11-3-10.4-1.85-8.45,3-16.25,8.13-23.77,12.92C118.93,256,103.52,267,88.15,278l1.73,2.23C100,270.16,110.08,260,119.11,248.9a90.46,90.46,0,0,0,7.67-10.58c1.38-2.33,2.78-4.95,3.05-7.7.49-5.17-4.3-6.74-8.61-6.75-9.26,0-18.77,3.23-27.49,6-19.07,6-37.74,13.26-56.32,20.55L38.5,253c14.66-10,29.29-20.2,43-31.48,7.74-6.36,16.34-13.37,21.35-22.22,2.79-4.95,3.65-10.8-.77-15.08-5.82-5.65-15.57-7.05-23.21-8.19-18-2.68-36.44-2.81-54.62-2.88l.38,2.8c16.74-4,33.54-8.16,49.88-13.61,8.24-2.75,18-5.65,24.58-11.63,13.1-11.9-16-21.09-23.09-23.48-18.65-6.29-37.92-10.8-57.06-15.27l-.38,2.8c16.86.55,33.82,1,50.68.08a121.24,121.24,0,0,0,15.09-1.62c3.07-.57,6.43-1.29,9.09-3,13.78-9-23.88-25.93-28.24-28.08C44.47,71.86,23.06,63,1.7,54.15,0,53.45-.73,56.21,1,56.9c18.89,7.8,37.77,15.72,56.24,24.5,10.38,4.94,21.26,9.95,30.47,16.94,2,1.56,4.54,3.45,5.62,5.87.57,1.29.42,2.18-.88,3.24-1.84,1.49-4.92,2.2-7.34,2.72a96.47,96.47,0,0,1-13.76,1.68c-17.53,1.18-35.2.62-52.74.05a1.43,1.43,0,0,0-.38,2.8c16.84,3.93,33.7,8,50.23,13.07,9,2.77,18.83,5.6,26.7,11,3.66,2.5,6.1,5.69,2.64,9.28a27.93,27.93,0,0,1-7.85,5.17,115.17,115.17,0,0,1-14,5.64c-17,5.86-34.57,10.13-52,14.34a1.43,1.43,0,0,0,.38,2.8c16.06.06,32.21.27,48.19,2,8.42.94,18.42,1.92,25.72,6.68,4.53,2.95,5.15,7.37,2.81,12-4.08,8.16-11.87,14.62-18.69,20.41C68,229.27,52.5,240,37.07,250.53c-1.24.84-.51,3.23,1.09,2.6,16.32-6.41,32.69-12.73,49.33-18.28,9.65-3.22,19.66-6.69,29.82-7.88,2.43-.28,5.19-.57,7.57.2a2.63,2.63,0,0,1,2.14,2.4c.12,2-1,4.28-2,6.13a68.25,68.25,0,0,1-6.6,9.56c-9.3,11.73-20,22.4-30.53,33-1.1,1.11.38,3.21,1.73,2.24,13.35-9.55,26.74-19.06,40.45-28.08,8.25-5.43,16.63-11,25.61-15.14a27.14,27.14,0,0,1,7.44-2.57,7.47,7.47,0,0,1,1.95,0,1.51,1.51,0,0,1,1.06.56,3,3,0,0,1,.43,1.33,9.15,9.15,0,0,1-.19,2.61,39,39,0,0,1-2.7,8.15c-4.55,10.7-10.59,20.81-16.47,30.81a1.43,1.43,0,0,0,2.24,1.73c10.82-10.17,21.84-20.24,33.71-29.2,7.8-5.89,16.17-11.69,25.44-15,6.26-2.24,13-3.16,19.39-.84,6.64,2.43,11.74,8,15.74,13.58,7,9.88,11.86,21.23,16.34,32.4a1.44,1.44,0,0,0,2.75,0c5.51-15.76,13.37-36.65,31-42.28,8.1-2.6,16.83-1.53,24.91.62,12.41,3.3,24.13,9.1,35.38,15.2,19.16,10.38,37.47,22.33,55.58,34.43,1.36.91,2.86-1.11,1.73-2.24-10-9.95-20.06-20-29.47-30.5-2.9-3.25-5.77-6.55-8.37-10a30.34,30.34,0,0,1-4.14-6.66,4.85,4.85,0,0,1-.39-1.91s-.05-.12.29-.24c-.43.15.73-.13.39-.09a7.62,7.62,0,0,1,1.17,0,15.56,15.56,0,0,1,3,.55c8.34,2.14,16.29,6.34,24,10.14,16.22,8.06,32.09,16.85,47.9,25.68a1.43,1.43,0,0,0,1.44-2.46c-13.82-9.3-27.64-18.6-41.37-28-7.44-5.11-15-10.17-22.13-15.66-.79-.6-1.58-1.21-2.34-1.86l-.75-.67c-.08-.08-.18-.24-.28-.29-.33-.17,0,0,0,0-.37.09.61-.74,0,.13.09-.14-1.19,2.25-1.23,1.62,0,.13-.28-.23.18.06a12.91,12.91,0,0,0,1.74.71c6.89,3.17,13.5,7.08,20.11,10.8,15.42,8.66,30.73,17.53,46,26.4,1.61.93,2.92-1.42,1.44-2.46-13.51-9.46-27-19-40-29.16-4-3.14-7.95-6.36-11.68-9.82a35.5,35.5,0,0,1-6.17-6.79,5,5,0,0,1-.94-2.15.58.58,0,0,1,.24-.56,2.4,2.4,0,0,0,.42-.24,6.85,6.85,0,0,1,1.24-.32,18.79,18.79,0,0,1,3.32-.11c9.29.38,18.67,3.19,27.6,5.55,19,5,37.75,10.85,56.5,16.67,1.8.56,2.39-2.06.75-2.75-16.16-6.79-32.33-13.6-48.36-20.7-8.47-3.75-17.1-7.41-25.19-12-1-.54-1.93-1.1-2.84-1.73-.41-.3-.35-.27-.66-.51s-.32-.33-.32-.33c.21-.09-.08.86-.23,1.18s-.24.15-.24.15c.7.09,1.46,0,2.18.06,7.85.76,15.71,3.18,23.31,5.13C445.39,208,463.2,213,481,218.09c1.51.43,2.6-1.92,1.1-2.61-16.46-7.47-32.93-15.13-48.58-24.21-8.35-4.84-18.2-10.3-23.92-18.35-10.6-14.9,18.74-22.16,27.88-24.74,18.85-5.33,38.26-8.76,57.54-12.08,1.63-.28,1.18-2.77-.38-2.8-17.43-.29-34.89-.63-52.3-1.63-9.29-.54-19.1-.79-28.14-3.23a15.42,15.42,0,0,1-2.93-1,4.7,4.7,0,0,1-1.29-1s.11,0,0,.14c.21-.32-.12-.11.26-.55a12.28,12.28,0,0,1,1.69-1.39c6.82-4.41,15.56-6.49,23.24-8.78,18.29-5.46,36.88-10,55.43-14.45,1.52-.37,1.24-3-.38-2.8-17.06,2.17-34.14,4.28-51.28,5.72-8.61.72-17.93,2-26.55.68a14.71,14.71,0,0,1-2.45-.59,3.12,3.12,0,0,1-.51-.3c-.12,0,0,.14,0,.17s0,0,.06-.12a3,3,0,0,1,.57-.68,14.09,14.09,0,0,1,2.48-1.86c8.07-5.09,17.47-8.4,26.32-11.82,19.83-7.69,40-14.58,60.11-21.43,1.72-.58,1-3.25-.76-2.74-18.1,5.13-36.2,10.26-54.34,15.24-10,2.74-20,5.55-30.07,7.85-2,.45-4.3.73-5.89,1.11-.54.12-.26-.15-.24,0s.83.74.86,1.22a1.25,1.25,0,0,1-.27.76s-.1,0,.3-.19l1-.56c6.6-3.43,13.83-5.86,20.76-8.53C447.42,76,464.57,69.7,481.72,63.4c1.69-.63,1-3.31-.76-2.75-18.89,5.93-37.83,11.78-57,16.94-11.4,3.07-23,6.27-34.82,7.58a34.53,34.53,0,0,1-9.08.17,7.25,7.25,0,0,1-2.58-.8,2.2,2.2,0,0,1-.94-1,2.71,2.71,0,0,1,0-1.8,10.58,10.58,0,0,1,1.2-2.74,44.73,44.73,0,0,1,6.1-7.81c9.27-10.05,20-18.84,30.47-27.55,1.29-1.07-.35-3-1.72-2.24-12.54,6.7-25.12,13.34-38,19.43-7.2,3.41-14.65,7.08-22.45,9-1.62.4-3.65.8-5,.38-.61-.18-.76-.52-.6-1.54A16.64,16.64,0,0,1,349.16,63a90.17,90.17,0,0,1,6.16-8.67c8.11-10.38,17.08-20.12,26-29.8a1.43,1.43,0,0,0-1.73-2.24C365.92,30,352.24,37.77,338.28,45,328.16,50.19,317.84,55.26,307,58.79,299.57,61.2,291.58,63,283.75,62A31,31,0,0,1,266,52.9c-7.54-7.49-12.48-17.37-16.76-26.95a1.44,1.44,0,0,0-2.61.34c-1.68,8.12-3.49,16.34-6.49,24.1-1.57,4-3.75,9.26-7.83,11.42-3.39,1.8-7.13.26-10.13-1.62-5.83-3.64-10.6-9-15.06-14.2-8.42-9.72-16-20.14-23.55-30.56-.87-1.2-3.2-.54-2.6,1.1a242.65,242.65,0,0,1,8.58,26.92c1,4,2.75,10.18.93,14.12a2.41,2.41,0,0,1-2.3,1.56,11.65,11.65,0,0,1-5.41-1.54c-6.94-3.34-13.11-8.49-19-13.38-12-10-23.3-20.67-34.52-31.45-1.35-1.29-3.17.63-2,2,7.11,8.58,14.27,17.15,21,26a76.9,76.9,0,0,1,7.86,12.09c0,.06-.08,0,0-.09s.61-.69.54-.55c0-.08,0,0,.05,0-.27-.11-.6-.14-.89-.24a31.91,31.91,0,0,1-5.55-3c-7.84-4.85-15.28-10.39-22.71-15.83C112.79,22.32,98.12,11.26,83.43.25c-1.3-1-2.91,1.15-1.73,2.24C92.84,12.71,104,23,114.75,33.55c5.54,5.44,11.63,10.94,16.08,17.35a21.54,21.54,0,0,1,1.2,2c.1.24.24.6.18.56s0-.19.21-.44.19,0-.28-.14a16.32,16.32,0,0,1-2.56-.75C122,49.29,114.9,44.73,108,40.65,92.35,31.45,77,21.71,61.75,12c-1.34-.86-3,1.18-1.73,2.23,12,10.12,24.1,20.31,35.41,31.25a143,143,0,0,1,10.19,10.71c1.78,2.13,3.84,4.66,4.77,7.18a5,5,0,0,1,.37,1.92,1,1,0,0,1-.65,1c-1.58.83-4.14.75-6.33.55-10.3-1-20.57-4.59-30.34-7.77-21-6.84-41.65-14.74-62.25-22.66-1.72-.66-2.46,2.09-.76,2.74Z"/></g></g></svg>